<?xml version="1.0" encoding="UTF-8" standalone="no"?>
<!-- Created with Inkscape (http://www.inkscape.org/) -->

<svg
   width="2203.3979"
   height="2203.3979"
   viewBox="0 0 582.98236 582.98239"
   version="1.1"
   id="svg5"
   inkscape:version="1.1 (c68e22c387, 2021-05-23)"
   sodipodi:docname="DripDropLogo.svg"
   xmlns:inkscape="http://www.inkscape.org/namespaces/inkscape"
   xmlns:sodipodi="http://sodipodi.sourceforge.net/DTD/sodipodi-0.dtd"
   xmlns:xlink="http://www.w3.org/1999/xlink"
   xmlns="http://www.w3.org/2000/svg"
   xmlns:svg="http://www.w3.org/2000/svg">
  <sodipodi:namedview
     id="namedview7"
     pagecolor="#ffffff"
     bordercolor="#999999"
     borderopacity="1"
     inkscape:pageshadow="0"
     inkscape:pageopacity="0"
     inkscape:pagecheckerboard="0"
     inkscape:document-units="px"
     showgrid="false"
     units="px"
     inkscape:zoom="0.19420595"
     inkscape:cx="342.42"
     inkscape:cy="1176.586"
     inkscape:window-width="1600"
     inkscape:window-height="837"
     inkscape:window-x="1352"
     inkscape:window-y="-8"
     inkscape:window-maximized="1"
     inkscape:current-layer="layer1" />
  <defs
     id="defs2">
    <linearGradient
       id="linearGradient4775"
       inkscape:collect="always">
      <stop
         id="stop4777"
         style="stop-color:#00002b"
         offset="0" />
      <stop
         id="stop4779"
         style="stop-color:#00002b;stop-opacity:0"
         offset="1" />
    </linearGradient>
    <linearGradient
       id="linearGradient4728">
      <stop
         id="stop4730"
         style="stop-color:#ffffff;stop-opacity:.78431"
         offset="0" />
      <stop
         id="stop4732"
         style="stop-color:#3c8fff;stop-opacity:.58824"
         offset=".33778" />
      <stop
         id="stop4734"
         style="stop-color:#00255d"
         offset=".67556" />
      <stop
         id="stop4736"
         style="stop-color:#a6caff;stop-opacity:0"
         offset="1" />
    </linearGradient>
    <linearGradient
       id="linearGradient3945">
      <stop
         id="stop3947"
         style="stop-color:#ffffff"
         offset="0" />
      <stop
         id="stop4007"
         style="stop-color:#ffffff"
         offset=".11290" />
      <stop
         id="stop3949"
         style="stop-color:#ffffff;stop-opacity:0"
         offset="1" />
    </linearGradient>
    <radialGradient
       id="radialGradient3884"
       fy="-522.89001"
       xlink:href="#linearGradient4728"
       spreadMethod="reflect"
       gradientUnits="userSpaceOnUse"
       cy="-540.84998"
       cx="1325.2"
       gradientTransform="matrix(1.0417,-4.5463e-8,4.0339e-8,0.92434,-69.481,-22.319)"
       r="41.416"
       inkscape:collect="always" />
    <radialGradient
       id="radialGradient3886"
       xlink:href="#linearGradient3945"
       gradientUnits="userSpaceOnUse"
       cy="-521.40002"
       cx="1326.7"
       gradientTransform="matrix(1,0,0,0.28878,-14.286,-353.69)"
       r="32.144001"
       inkscape:collect="always" />
    <radialGradient
       id="radialGradient3888"
       xlink:href="#linearGradient3945"
       gradientUnits="userSpaceOnUse"
       cy="-588.63"
       cx="1326.3"
       gradientTransform="matrix(1,0,0,0.31035,-14.286,-391.23)"
       r="12.206"
       inkscape:collect="always" />
    <radialGradient
       id="radialGradient3890"
       fy="-522.89001"
       xlink:href="#linearGradient4775"
       spreadMethod="reflect"
       gradientUnits="userSpaceOnUse"
       cy="-540.84998"
       cx="1325.2"
       gradientTransform="matrix(1.9774,0,0,1.7545,-1309.4,426.69)"
       r="41.416"
       inkscape:collect="always" />
    <radialGradient
       id="radialGradient3892"
       fy="-516.01001"
       xlink:href="#linearGradient3945"
       spreadMethod="reflect"
       gradientUnits="userSpaceOnUse"
       cy="-537.34998"
       cx="1326.4"
       gradientTransform="matrix(0.89325,4.1578e-7,-4.1578e-7,0.89325,127.29,-40.613)"
       r="41.416"
       inkscape:collect="always" />
    <radialGradient
       id="radialGradient3850"
       xlink:href="#linearGradient4728"
       gradientUnits="userSpaceOnUse"
       cy="-429.42001"
       cx="1313.7"
       gradientTransform="matrix(-3.891,-0.090364,-0.048538,2.09,6401.2,591.56)"
       r="105.48"
       inkscape:collect="always" />
    <radialGradient
       id="radialGradient3859"
       xlink:href="#linearGradient4728"
       gradientUnits="userSpaceOnUse"
       cy="-438.92001"
       cx="1314.8"
       gradientTransform="matrix(-3.7329,-0.086691,-0.047446,2.043,6195.8,567.75)"
       r="105.48"
       inkscape:collect="always" />
    <linearGradient
       id="linearGradient5359"
       y2="-473.37"
       xlink:href="#linearGradient4728"
       gradientUnits="userSpaceOnUse"
       x2="2494"
       gradientTransform="matrix(0,1.2365,-1.1375,0,782.14,-2495.9)"
       y1="-473.37"
       x1="128.64999"
       inkscape:collect="always" />
    <radialGradient
       id="radialGradient5367"
       xlink:href="#linearGradient4728"
       gradientUnits="userSpaceOnUse"
       cy="-357.26001"
       cx="1320.4"
       gradientTransform="matrix(8.3787,0,0,2.1452,-9713.8,390.55)"
       r="114.29"
       inkscape:collect="always" />
    <radialGradient
       id="radialGradient5369"
       xlink:href="#linearGradient4728"
       gradientUnits="userSpaceOnUse"
       cy="-357.26001"
       cx="1320.4"
       gradientTransform="matrix(7.8895,0,0,2.0199,-9069.5,345.43)"
       r="114.29"
       inkscape:collect="always" />
    <radialGradient
       id="radialGradient5371"
       xlink:href="#linearGradient4728"
       gradientUnits="userSpaceOnUse"
       cy="-357.26001"
       cx="1320.4"
       gradientTransform="matrix(4.3562,0,0,1.1153,-4416.3,27.847)"
       r="114.29"
       inkscape:collect="always" />
    <radialGradient
       inkscape:collect="always"
       xlink:href="#linearGradient4728"
       id="radialGradient2511"
       gradientUnits="userSpaceOnUse"
       gradientTransform="matrix(1.0417,-4.5463e-8,4.0339e-8,0.92434,-69.481,-22.319)"
       cx="1325.2"
       cy="-540.84998"
       fy="-522.89001"
       r="41.416"
       spreadMethod="reflect" />
    <radialGradient
       inkscape:collect="always"
       xlink:href="#linearGradient3945"
       id="radialGradient2513"
       gradientUnits="userSpaceOnUse"
       gradientTransform="matrix(1,0,0,0.28878,-14.286,-353.69)"
       cx="1326.7"
       cy="-521.40002"
       r="32.144001" />
    <radialGradient
       inkscape:collect="always"
       xlink:href="#linearGradient3945"
       id="radialGradient2515"
       gradientUnits="userSpaceOnUse"
       gradientTransform="matrix(1,0,0,0.31035,-14.286,-391.23)"
       cx="1326.3"
       cy="-588.63"
       r="12.206" />
    <radialGradient
       inkscape:collect="always"
       xlink:href="#linearGradient4775"
       id="radialGradient2517"
       gradientUnits="userSpaceOnUse"
       gradientTransform="matrix(1.9774,0,0,1.7545,-1309.4,426.69)"
       cx="1325.2"
       cy="-540.84998"
       fy="-522.89001"
       r="41.416"
       spreadMethod="reflect" />
    <radialGradient
       inkscape:collect="always"
       xlink:href="#linearGradient3945"
       id="radialGradient2519"
       gradientUnits="userSpaceOnUse"
       gradientTransform="matrix(0.89325,4.1578e-7,-4.1578e-7,0.89325,127.29,-40.613)"
       cx="1326.4"
       cy="-537.34998"
       fy="-516.01001"
       r="41.416"
       spreadMethod="reflect" />
  </defs>
  <g
     inkscape:label="Layer 1"
     inkscape:groupmode="layer"
     id="layer1">
    <g
       id="layer1-3"
       inkscape:label="Layer 1"
       transform="matrix(0.26458333,0,0,0.26458333,-58.536833,389.07893)">
      <path
         id="rect3901"
         style="opacity:0.68534;fill:url(#linearGradient5359)"
         inkscape:connector-curvature="0"
         d="m 217.54,-1469.2 v 2057 h 2206.1 v -2057 z" />
      <path
         id="path3865"
         style="fill:url(#radialGradient5369);fill-rule:evenodd"
         inkscape:connector-curvature="0"
         d="m 2342.9,-382.23 c 0,144.55 -457.69,261.73 -1022.3,261.73 -564.59,0 -1022.3,-117.18 -1022.3,-261.73 0,-144.55 457.69,-261.73 1022.3,-261.73 564.59,0 1022.3,117.18 1022.3,261.73 z" />
      <path
         id="path3897"
         style="fill:url(#radialGradient5367);fill-rule:evenodd"
         inkscape:connector-curvature="0"
         d="m 2406.3,-382.23 c 0,153.52 -486.08,277.97 -1085.7,277.97 -599.61,0 -1085.7,-124.45 -1085.7,-277.97 0,-153.52 486.08,-277.97 1085.7,-277.97 599.61,0 1085.7,124.45 1085.7,277.97 z" />
      <path
         id="path3863"
         style="fill:url(#radialGradient5371);fill-rule:evenodd"
         inkscape:connector-curvature="0"
         d="m 1885.1,-373.93 c 0,79.814 -252.72,144.52 -564.45,144.52 -311.74,0 -564.45,-64.702 -564.45,-144.52 0,-79.814 252.71,-144.52 564.45,-144.52 311.74,0 564.45,64.702 564.45,144.52 z" />
      <g
         id="g3875"
         transform="matrix(1.4348,0,0,1.1506,-561.89,-144.72)">
        <path
           id="path4690"
           d="m 1272.9,-527.57 c 0.1318,0.76873 0.2933,1.5409 0.453,2.2961 5.507,7.1274 20.719,12.258 38.658,12.258 17.94,0 33.177,-5.1306 38.689,-12.258 0.1597,-0.75521 0.3211,-1.5273 0.453,-2.2961 -5.1309,5.4354 -20.732,9.3694 -39.142,9.3694 -18.409,0 -33.984,-3.934 -39.111,-9.3694 z"
           style="fill:#08102c;fill-rule:evenodd"
           inkscape:connector-curvature="0" />
        <path
           id="path3089"
           d="m 1353.5,-536.75 c 0,23.367 -18.543,42.309 -41.416,42.309 -22.874,0 -41.416,-18.942 -41.416,-42.309 0,-23.367 18.543,-42.309 41.416,-42.309 22.874,0 41.416,18.942 41.416,42.309 z"
           style="fill:url(#radialGradient2511);fill-rule:evenodd"
           inkscape:connector-curvature="0" />
        <path
           id="path3878"
           d="m 1284,-513.31 c -4.5661,-0.69711 -4.507,1.1068 -2.2729,3.9316 7.0109,9.165 18.488,14.399 30.607,14.399 12.119,0 23.57,-5.2361 30.576,-14.399 2.1367,-2.7325 2.8598,-4.9384 -2.2728,-3.9066 -8.8767,1.814 -18.736,0.46693 -28.304,0.4636 -9.5678,-0.003 -19.436,1.3297 -28.334,-0.48863 z"
           sodipodi:nodetypes="ccsccsc"
           style="fill:url(#radialGradient2513);fill-rule:evenodd"
           inkscape:connector-curvature="0" />
        <path
           id="path3958"
           style="fill:url(#radialGradient2515);fill-rule:evenodd"
           inkscape:connector-curvature="0"
           d="m 1324.3,-573.91 c 0,-2.0921 -5.4647,-3.7881 -12.206,-3.7881 -6.7411,0 -12.206,1.696 -12.206,3.7881 0,2.0921 5.4647,3.7881 12.206,3.7881 6.7414,0 12.206,-1.696 12.206,-3.7881 z" />
        <path
           id="path4829"
           d="m 1339.6,-568.39 c 4.5945,7.4084 7.3437,24.729 7.3437,34.844 0,24.152 -15.596,35.719 -34.844,35.719 -19.247,0 -34.875,-11.566 -34.875,-35.719 0,-10.104 2.7577,-27.408 7.3437,-34.812 -8.5246,7.7495 -13.906,19.019 -13.906,31.594 10e-5,23.367 18.564,42.312 41.438,42.312 22.874,0 41.406,-18.946 41.406,-42.312 0,-12.584 -5.3705,-23.875 -13.906,-31.625 z"
           sodipodi:nodetypes="cssscsssc"
           style="fill:url(#radialGradient2517);fill-rule:evenodd"
           inkscape:connector-curvature="0" />
        <path
           id="path3970"
           d="m 1312.1,-577.54 c -13.69,0 -25.779,6.8067 -33.094,17.219 -1.792,2.2184 -2.652,3.9589 -2.7188,4.7812 8.0312,-11.311 21.088,-18.688 35.813,-18.688 14.653,0 27.616,7.313 35.656,18.531 -0.1908,-0.89489 -1.0131,-2.5471 -2.5625,-4.625 -7.306,-10.412 -19.404,-17.219 -33.094,-17.219 z"
           style="fill:url(#radialGradient2519);fill-rule:evenodd"
           inkscape:connector-curvature="0" />
        <path
           id="path4093"
           d="m 1312.7,-576.05 c -0.6078,-0.01 -1.2346,0.0115 -1.8437,0.0312 -8.0081,0.20195 -15.763,3.0768 -22.062,7.9688 0.7119,-0.38114 1.4557,-0.71564 2.1875,-1.0625 6.2621,-3.475 13.41,-5.4688 21.031,-5.4688 7.4554,0 14.47,1.9126 20.625,5.25 0.03,0.0137 0.064,0.0175 0.094,0.0312 0.9017,0.41955 1.7838,0.84102 2.6563,1.3125 -6.426,-5.0921 -14.471,-7.93 -22.688,-8.0625 z"
           style="fill:#ffffff;fill-rule:evenodd"
           inkscape:connector-curvature="0" />
      </g>
      <path
         id="path3852"
         sodipodi:nodetypes="ccccccccccccc"
         style="color:#000000;text-indent:0;text-transform:none;fill:url(#radialGradient3859)"
         inkscape:connector-curvature="0"
         d="m 1318.7,-563.47 c 23.865,-1.0932 45.394,22.844 40.421,46.551 -1.8966,43.459 -29.312,86.797 -18.093,130.32 7.2542,21.721 31.267,32.706 52.986,31.509 39.728,1.4202 77.698,-12.232 115.27,-23.244 -11.282,7.4322 -27.475,9.0158 -40.613,13.985 -32.364,9.363 -66.31,13.285 -99.894,10.044 -44.776,-1.2623 -89.638,-1.019 -134.36,-3.1809 -35.542,-4.8924 -69.289,-17.698 -102.56,-30.584 43.352,17.828 90.023,33.974 137.56,28.743 18.968,-3.9842 29.833,-24.862 26.629,-43.161 -1.7433,-42.002 -14.078,-80.684 -15.01,-122.73 -0.4607,-20.882 17.076,-37.756 37.665,-38.249 z" />
      <path
         id="path4021"
         sodipodi:nodetypes="cccccccccccccccccccccccc"
         style="color:#000000;text-indent:0;text-transform:none;fill:url(#radialGradient3850)"
         inkscape:connector-curvature="0"
         d="m 1316.6,-567.89 c 22.971,-0.74382 45.434,19.822 42.391,43.535 -1.0093,43.524 -28.136,86.23 -20.529,129.94 3.3249,20.471 21.286,35.797 41.479,38.33 42.131,5.9666 83.974,-6.9226 123.94,-18.809 4.5702,-2.3808 24.314,-6.9464 9.7989,-1.3178 -42.84,13.666 -87.798,27.105 -133.11,22.556 -47.371,-0.82544 -94.773,-2.2186 -142.12,-2.526 -22.214,-1.7926 -43.87,-7.6108 -65.094,-14.158 31.166,8.3059 64.539,17.594 96.708,9.6715 18.476,-4.9239 25.492,-25.706 23.626,-43.026 -2.6071,-43.163 -15.486,-82.958 -16.236,-126.32 -0.9053,-21.165 19.163,-37.346 39.139,-37.88 z m 0.9085,6.713 c -17.955,-0.28654 -36.245,15.544 -32.942,34.498 0.9757,46.973 19.882,90.101 15.324,137.55 0.7895,9.9267 -10.784,22.77 -11.359,26.895 20.942,0.80889 41.904,0.77881 62.851,1.3844 -22.542,-17.161 -22.861,-48.131 -20.711,-73.776 3.2532,-32.37 22.084,-64.099 21.777,-96.755 -2.3192,-16.694 -18.012,-30.342 -34.941,-29.797 z m -195.17,172.67 c 16.601,6.5028 33.365,12.61 50.372,17.969 -17.098,-5.0726 -33.948,-11.014 -50.372,-17.969 z" />
      <path
         id="path3873"
         style="fill:#ffffff;fill-rule:evenodd"
         inkscape:connector-curvature="0"
         d="m 1339.3,-544 c 0,4.8627 -8.3767,8.8045 -18.71,8.8045 -10.3333,0 -18.71,-3.9419 -18.71,-8.8045 0,-4.8626 8.3766,-8.8046 18.71,-8.8046 10.3334,0 18.71,3.942 18.71,8.8046 z" />
      <g
         id="g3869"
         transform="matrix(1.8474,0,0,1.8474,-1103.2,9.337)">
        <path
           id="path3871"
           style="fill:#08102c;fill-rule:evenodd"
           inkscape:connector-curvature="0"
           d="m 1272.9,-527.57 c 0.1318,0.76873 0.2933,1.5409 0.453,2.2961 5.507,7.1274 20.719,12.258 38.658,12.258 17.94,0 33.177,-5.1306 38.689,-12.258 0.1597,-0.75521 0.3211,-1.5273 0.453,-2.2961 -5.1309,5.4354 -20.732,9.3694 -39.142,9.3694 -18.409,0 -33.984,-3.934 -39.111,-9.3694 z" />
        <path
           id="path3874"
           style="fill:url(#radialGradient3884);fill-rule:evenodd"
           inkscape:connector-curvature="0"
           d="m 1353.5,-536.75 c 0,23.367 -18.543,42.309 -41.416,42.309 -22.874,0 -41.416,-18.942 -41.416,-42.309 0,-23.367 18.543,-42.309 41.416,-42.309 22.874,0 41.416,18.942 41.416,42.309 z" />
        <path
           id="path3876"
           sodipodi:nodetypes="ccsccsc"
           style="fill:url(#radialGradient3886);fill-rule:evenodd"
           inkscape:connector-curvature="0"
           d="m 1284,-513.31 c -4.5661,-0.69711 -4.507,1.1068 -2.2729,3.9316 7.0109,9.165 18.488,14.399 30.607,14.399 12.119,0 23.57,-5.2361 30.576,-14.399 2.1367,-2.7325 2.8598,-4.9384 -2.2728,-3.9066 -8.8767,1.814 -18.736,0.46693 -28.304,0.4636 -9.5678,-0.003 -19.436,1.3297 -28.334,-0.48863 z" />
        <path
           id="path3879"
           style="fill:url(#radialGradient3888);fill-rule:evenodd"
           inkscape:connector-curvature="0"
           d="m 1324.3,-573.91 c 0,-2.0921 -5.4647,-3.7881 -12.206,-3.7881 -6.7411,0 -12.206,1.696 -12.206,3.7881 0,2.0921 5.4647,3.7881 12.206,3.7881 6.7414,0 12.206,-1.696 12.206,-3.7881 z" />
        <path
           id="path3881"
           sodipodi:nodetypes="cssscsssc"
           style="fill:url(#radialGradient3890);fill-rule:evenodd"
           inkscape:connector-curvature="0"
           d="m 1339.6,-568.39 c 4.5945,7.4084 7.3437,24.729 7.3437,34.844 0,24.152 -15.596,35.719 -34.844,35.719 -19.247,0 -34.875,-11.566 -34.875,-35.719 0,-10.104 2.7577,-27.408 7.3437,-34.812 -8.5246,7.7495 -13.906,19.019 -13.906,31.594 10e-5,23.367 18.564,42.312 41.438,42.312 22.874,0 41.406,-18.946 41.406,-42.312 0,-12.584 -5.3705,-23.875 -13.906,-31.625 z" />
        <path
           id="path3883"
           style="fill:url(#radialGradient3892);fill-rule:evenodd"
           inkscape:connector-curvature="0"
           d="m 1312.1,-577.54 c -13.69,0 -25.779,6.8067 -33.094,17.219 -1.792,2.2184 -2.652,3.9589 -2.7188,4.7812 8.0312,-11.311 21.088,-18.688 35.813,-18.688 14.653,0 27.616,7.313 35.656,18.531 -0.1908,-0.89489 -1.0131,-2.5471 -2.5625,-4.625 -7.306,-10.412 -19.404,-17.219 -33.094,-17.219 z" />
        <path
           id="path3885"
           style="fill:#ffffff;fill-rule:evenodd"
           inkscape:connector-curvature="0"
           d="m 1312.7,-576.05 c -0.6078,-0.01 -1.2346,0.0115 -1.8437,0.0312 -8.0081,0.20195 -15.763,3.0768 -22.062,7.9688 0.7119,-0.38114 1.4557,-0.71564 2.1875,-1.0625 6.2621,-3.475 13.41,-5.4688 21.031,-5.4688 7.4554,0 14.47,1.9126 20.625,5.25 0.03,0.0137 0.064,0.0175 0.094,0.0312 0.9017,0.41955 1.7838,0.84102 2.6563,1.3125 -6.426,-5.0921 -14.471,-7.93 -22.688,-8.0625 z" />
      </g>
    </g>
    <text
       xml:space="preserve"
       style="font-style:normal;font-variant:normal;font-weight:normal;font-stretch:normal;font-size:141.111px;line-height:1.25;font-family:'Bauhaus 93';-inkscape-font-specification:'Bauhaus 93, Normal';font-variant-ligatures:normal;font-variant-caps:normal;font-variant-numeric:normal;font-variant-east-asian:normal;fill:#000000;fill-opacity:1;stroke:none;stroke-width:0.264583"
       x="-1.3623877"
       y="505.44501"
       id="text4222"><tspan
         sodipodi:role="line"
         id="tspan4220"
         style="font-style:normal;font-variant:normal;font-weight:normal;font-stretch:normal;font-size:141.111px;font-family:'Bauhaus 93';-inkscape-font-specification:'Bauhaus 93, Normal';font-variant-ligatures:normal;font-variant-caps:normal;font-variant-numeric:normal;font-variant-east-asian:normal;stroke-width:0.264583"
         x="-1.3623877"
         y="505.44501">DripDrop</tspan></text>
  </g>
</svg>
